<?xml version="1.0" encoding="UTF-8"?>
<svg version="1.1" xmlns="http://www.w3.org/2000/svg" width="425" height="308">
<path d="M0 0 C0.66 0 1.32 0 2 0 C2.18062988 0.52843506 2.36125977 1.05687012 2.54736328 1.60131836 C7.96183529 18.99510954 7.96183529 18.99510954 20 32 C22.6794645 33.24016669 22.6794645 33.24016669 25 34 C24.34 34.99 23.68 35.98 23 37 C22.34 37 21.68 37 21 37 C20.67 37.99 20.34 38.98 20 40 C17.36 40.33 14.72 40.66 12 41 C20.46567979 47.34925985 27.7794323 47.26053668 38 46 C37.75202828 51.08342023 36.09161086 53.84478739 32.7265625 57.45703125 C27.36309692 62.25017357 20.84993261 62.60030574 14 63 C15.269553 63.64834654 16.54069706 64.29357815 17.8125 64.9375 C18.87404297 65.47697266 18.87404297 65.47697266 19.95703125 66.02734375 C23.25691901 67.59841842 25.84008843 68.1218786 29.44921875 68.09765625 C30.29677734 68.09443359 31.14433594 68.09121094 32.01757812 68.08789062 C32.89865234 68.07951172 33.77972656 68.07113281 34.6875 68.0625 C35.58017578 68.05798828 36.47285156 68.05347656 37.39257812 68.04882812 C39.59511987 68.03704983 41.79752599 68.02060164 44 68 C44.33 67.34 44.66 66.68 45 66 C45.99 66 46.98 66 48 66 C48.33 66.99 48.66 67.98 49 69 C44.75831959 77.11451905 37.83259696 82.24338274 29.3203125 85.2890625 C24.47886427 86.7724692 20.04606534 87.12014441 15 87 C16.58074564 87.81752303 18.16471223 88.62881997 19.75 89.4375 C20.63171875 89.88996094 21.5134375 90.34242188 22.421875 90.80859375 C28.09982154 93.43249329 33.53031751 93.18343048 39.6875 93.1875 C40.64333984 93.19974609 41.59917969 93.21199219 42.58398438 93.22460938 C48.70173811 93.23712012 54.07771962 92.54308644 60 91 C59.68684138 97.1065931 56.89666784 101.47144008 53 106 C46.05683725 111.74732804 38.12891029 115.56493251 28.9296875 114.8359375 C27.27948536 114.60210319 25.63814031 114.30715131 24 114 C24.33 114.99 24.66 115.98 25 117 C37.69087161 120.27506364 51.50363048 120.16545651 64 116 C64.33 116.99 64.66 117.98 65 119 C62.11080329 123.84530654 57.76993569 127.16075257 53 130 C56.2797999 131.63989995 59.89858863 131.14526925 63.5 131.125 C64.31065918 131.12306641 65.12131836 131.12113281 65.95654297 131.11914062 C71.69525074 131.07783019 77.30385607 130.73498631 83 130 C81.75915033 136.35935455 78.0560983 139.38729537 73 143 C63.3505901 148.88567538 54.34634173 150.32384974 43.1875 150.0625 C41.34773635 150.02798046 39.5078836 149.99786056 37.66796875 149.97265625 C36.86641357 149.95468994 36.0648584 149.93672363 35.23901367 149.91821289 C33.01781011 149.99934943 31.12805441 150.3792541 29 151 C28.67 150.01 28.34 149.02 28 148 C25.63304613 146.96134904 23.38444505 146.10422904 20.9375 145.3125 C20.27427734 145.08755859 19.61105469 144.86261719 18.92773438 144.63085938 C17.28869793 144.07665281 15.64477407 143.53693915 14 143 C21.97641056 150.7362614 21.97641056 150.7362614 32 154 C32 154.66 32 155.32 32 156 C45.65005446 160.55679911 58.73173675 160.44374981 73 160 C72.2261036 163.77231989 71.23953471 164.95266003 68.0625 167.1875 C66.99708984 167.95126953 66.99708984 167.95126953 65.91015625 168.73046875 C64 170 64 170 62 171 C72.40119561 171.99959542 81.67084562 171.95285575 92 170 C91.18687452 176.70828523 86.9315824 180.69345102 82 185 C75.37214347 189.04858224 69.83420041 191.37493654 62 191 C62 191.99 62 192.98 62 194 C63.32 194.66 64.64 195.32 66 196 C66 196.66 66 197.32 66 198 C54.81360153 198.80703476 45.06375351 195.68081559 35 191 C35.75796875 191.83144531 35.75796875 191.83144531 36.53125 192.6796875 C37.1809375 193.40414062 37.830625 194.12859375 38.5 194.875 C39.1496875 195.59429687 39.799375 196.31359375 40.46875 197.0546875 C42 199 42 199 42 201 C31.26356834 199.77418694 22.2950362 195.96783041 14 189 C16.44179904 208.02746741 16.44179904 208.02746741 27 223 C31.40473006 226.15629788 35.55505583 226.89166118 40.7890625 227.71875 C41.64696381 227.86276245 42.50486511 228.0067749 43.38876343 228.15515137 C46.1326506 228.61326792 48.87867179 229.05677878 51.625 229.5 C53.41682358 229.79723267 55.2084921 230.09540174 57 230.39453125 C64.10301078 231.5745076 71.20896488 232.73134329 78.32714844 233.81640625 C79.18069916 233.94752808 80.03424988 234.0786499 80.91366577 234.21374512 C82.51397595 234.45848618 84.11487418 234.69942764 85.71646118 234.93566895 C90.28010275 235.63381455 94.5862785 236.64103647 99 238 C99 239.32 99 240.64 99 242 C93.94826303 242.99300281 89.03813662 243.22773633 83.91015625 243.3515625 C83.04740585 243.37471527 82.18465546 243.39786804 81.29576111 243.42172241 C79.47790908 243.46916402 77.65999887 243.51442074 75.84204102 243.55761719 C73.07478203 243.62470225 70.3079662 243.70256661 67.54101562 243.78125 C65.76824565 243.82617589 63.99545946 243.87046771 62.22265625 243.9140625 C60.99265648 243.94990952 60.99265648 243.94990952 59.73780823 243.98648071 C58.95687302 244.0033493 58.17593781 244.0202179 57.37133789 244.03759766 C56.3559066 244.06305161 56.3559066 244.06305161 55.31996155 244.08901978 C53 244 53 244 49.95403481 243.50237274 C45.40567198 242.92448873 40.99380057 242.86135361 36.41548157 242.87301636 C34.99579261 242.87067637 34.99579261 242.87067637 33.54742306 242.86828911 C30.38617296 242.86431065 27.22497114 242.86745651 24.0637207 242.87060547 C21.79334485 242.86925006 19.52296921 242.86746934 17.25259399 242.86529541 C11.09383996 242.86073851 4.93510268 242.86250329 -1.22365165 242.8656745 C-7.66666442 242.86820615 -14.10967577 242.86585839 -20.5526886 242.86428833 C-32.06194657 242.86235289 -43.57119597 242.86545962 -55.0804526 242.87054767 C-65.51661084 242.87501841 -75.95275797 242.87423644 -86.38891602 242.86962891 C-98.51318836 242.86427857 -110.63745198 242.86228451 -122.76172572 242.86524117 C-129.17807934 242.8668018 -135.5944253 242.86700344 -142.01077843 242.86370468 C-148.0394899 242.86082163 -154.06818031 242.86280971 -160.0968895 242.86859894 C-162.31248121 242.86992401 -164.52807468 242.86953668 -166.7436657 242.86733627 C-169.76127877 242.86461503 -172.77882379 242.8680179 -175.7964325 242.87301636 C-176.67881535 242.87078564 -177.5611982 242.86855491 -178.47031993 242.86625659 C-179.27863161 242.86886434 -180.08694329 242.87147209 -180.91974926 242.87415886 C-181.96436393 242.87440239 -181.96436393 242.87440239 -183.03008193 242.87465084 C-185.05843262 242.94115191 -185.05843262 242.94115191 -187.19251567 243.57036507 C-187.7889855 243.7121446 -188.38545533 243.85392412 -189 244 C-189.33 243.67 -189.66 243.34 -190 243 C-193.2462509 243.18340401 -196.46789736 243.52169114 -199.703125 243.84375 C-202.72248768 243.98684776 -205.08866015 243.74425229 -208 243 C-208.33 243.66 -208.66 244.32 -209 245 C-209.66 244.67 -210.32 244.34 -211 244 C-212.69941725 243.8459239 -214.40428695 243.75017589 -216.109375 243.68359375 C-217.16447266 243.64153809 -218.21957031 243.59948242 -219.30664062 243.55615234 C-220.44294922 243.51699707 -221.57925781 243.4778418 -222.75 243.4375 C-223.90693359 243.3957666 -225.06386719 243.3540332 -226.25585938 243.31103516 C-234.0037563 243.05157169 -241.74779467 242.89649771 -249.5 242.875 C-250.89557129 242.86811157 -250.89557129 242.86811157 -252.31933594 242.86108398 C-253.17301758 242.86309814 -254.02669922 242.8651123 -254.90625 242.8671875 C-255.65197266 242.86831543 -256.39769531 242.86944336 -257.16601562 242.87060547 C-259.09768002 242.88919171 -259.09768002 242.88919171 -261 244 C-262.66691076 243.66788944 -264.33352202 243.33427537 -266 243 C-268.39230895 242.93044603 -270.78646896 242.91547933 -273.1796875 242.9375 C-273.86950714 242.94128662 -274.55932678 242.94507324 -275.27005005 242.94897461 C-278.19476006 242.96511707 -281.11932471 242.99285494 -284.04394531 243.02050781 C-294.08468288 243.10710519 -303.98839734 242.81742263 -314 242 C-314 241.01 -314 240.02 -314 239 C-311.11670617 237.55835308 -308.48108245 237.70381968 -305.26220703 237.53515625 C-304.56917984 237.49760223 -303.87615265 237.46004822 -303.16212463 237.4213562 C-300.86088555 237.29763452 -298.55937013 237.18013386 -296.2578125 237.0625 C-294.65271712 236.97708172 -293.04764533 236.89121908 -291.44259644 236.80493164 C-287.20262719 236.57795616 -282.9624111 236.35599575 -278.72210693 236.13537598 C-271.97111841 235.78347608 -265.22049197 235.42476211 -258.46993637 235.06466675 C-256.12613659 234.94045837 -253.78221482 234.81880935 -251.43826294 234.69750977 C-237.79715571 234.95450417 -237.79715571 234.95450417 -225 232 C-223.56988242 231.99754664 -222.13964046 232.04182783 -220.7109375 232.10546875 C-212.26958298 232.1753339 -203.97371412 230.8576555 -195.62759399 229.72106934 C-192.56605465 229.30447918 -189.50332423 228.8978151 -186.44018555 228.49316406 C-176.94590823 227.23381692 -167.45870643 225.93345699 -157.98046875 224.55859375 C-123.6573125 219.60842428 -90.56721253 218.39793534 -55.9375 221.0625 C-51.6257227 221.38593715 -47.313308 221.69770457 -43 222 C-42.09701172 222.06703125 -41.19402344 222.1340625 -40.26367188 222.203125 C-31.77729388 223.02827413 -31.77729388 223.02827413 -23.78125 220.8203125 C-21.97499495 218.96978649 -21.04492366 217.3643959 -20 215 C-19.61972656 214.14277344 -19.23945313 213.28554688 -18.84765625 212.40234375 C-15.99091321 205.17407221 -13.83682443 197.80523148 -14 190 C-14.70125 190.55429688 -15.4025 191.10859375 -16.125 191.6796875 C-23.27103385 197.13630574 -28.73590587 200.57900588 -38 200 C-38.33 199.34 -38.66 198.68 -39 198 C-38.24203125 197.49339844 -38.24203125 197.49339844 -37.46875 196.9765625 C-36.8190625 196.53054687 -36.169375 196.08453125 -35.5 195.625 C-34.8503125 195.18414062 -34.200625 194.74328125 -33.53125 194.2890625 C-33.0259375 193.86367187 -32.520625 193.43828125 -32 193 C-32 192.34 -32 191.68 -32 191 C-32.70253906 191.46019531 -33.40507812 191.92039063 -34.12890625 192.39453125 C-37.08423263 194.04710151 -39.65609379 194.88932011 -42.9375 195.6875 C-44.43603516 196.06455078 -44.43603516 196.06455078 -45.96484375 196.44921875 C-49.045325 197.008225 -51.87656465 197.09775282 -55 197 C-55.33 197.66 -55.66 198.32 -56 199 C-58.97 198.67 -61.94 198.34 -65 198 C-65.33 197.01 -65.66 196.02 -66 195 C-63.69 194.01 -61.38 193.02 -59 192 C-59 191.34 -59 190.68 -59 190 C-59.96421875 190.03480469 -60.9284375 190.06960937 -61.921875 190.10546875 C-63.18515625 190.13253906 -64.4484375 190.15960938 -65.75 190.1875 C-67.00296875 190.22230469 -68.2559375 190.25710937 -69.546875 190.29296875 C-73.25756927 189.9781474 -74.32583818 189.44694545 -77 187 C-78.30358536 186.1732729 -79.61615723 185.3605387 -80.9375 184.5625 C-86.30516753 181.21395508 -89.63981749 178.97912903 -92 173 C-94.01735205 171.65589738 -94.01735205 171.65589738 -96 171 C-95.34 170.67 -94.68 170.34 -94 170 C-94 169.34 -94 168.68 -94 168 C-93.21625 168.309375 -92.4325 168.61875 -91.625 168.9375 C-81.42910125 171.92595308 -70.52300785 171.10316674 -60 171 C-60 170.34 -60 169.68 -60 169 C-60.70125 168.773125 -61.4025 168.54625 -62.125 168.3125 C-65.7696284 166.6486479 -68.09489178 164.76998691 -71 162 C-71 161.01 -71 160.02 -71 159 C-69.80246094 159.02320313 -68.60492188 159.04640625 -67.37109375 159.0703125 C-49.58815928 159.31449279 -31.93920006 158.77723056 -17.29296875 147.33203125 C-15.76783092 146.07021021 -15.76783092 146.07021021 -16 144 C-16.845625 144.26554688 -17.69125 144.53109375 -18.5625 144.8046875 C-24.67907342 146.70916604 -30.77253381 148.50079518 -37 150 C-37.99 150.33 -38.98 150.66 -40 151 C-40 150.34 -40 149.68 -40 149 C-40.763125 149.20625 -41.52625 149.4125 -42.3125 149.625 C-51.7889021 150.58870191 -62.22441872 147.60158422 -69.8125 141.87890625 C-76.90843257 135.7405214 -76.90843257 135.7405214 -78 131 C-78.99 130.67 -79.98 130.34 -81 130 C-80.01 129.34 -79.02 128.68 -78 128 C-75.95694988 128.4767117 -73.91531092 128.96060529 -71.8828125 129.48046875 C-65.40610074 130.64768103 -57.2556846 131.0852282 -51 129 C-51 128.34 -51 127.68 -51 127 C-51.556875 126.773125 -52.11375 126.54625 -52.6875 126.3125 C-55.71572375 124.59377841 -57.77323664 122.67211603 -60 120 C-59.63671875 117.8359375 -59.63671875 117.8359375 -59 116 C-58.23558594 116.144375 -57.47117187 116.28875 -56.68359375 116.4375 C-44.82354637 118.49267066 -31.68241485 119.74021977 -20 116 C-19.67 115.34 -19.34 114.68 -19 114 C-17.515 113.505 -17.515 113.505 -16 113 C-15.67 112.34 -15.34 111.68 -15 111 C-15.69738281 111.32355469 -16.39476562 111.64710938 -17.11328125 111.98046875 C-25.36743799 114.89567161 -35.09016143 113.38788004 -43 110 C-46.375 108 -46.375 108 -49 106 C-49.65742188 105.56816406 -50.31484375 105.13632813 -50.9921875 104.69140625 C-53.39818557 102.66456352 -54.40001779 100.76662939 -55.75 97.9375 C-56.39195312 96.62072266 -56.39195312 96.62072266 -57.046875 95.27734375 C-58 93 -58 93 -58 91 C-50.54379977 91.89988623 -50.54379977 91.89988623 -47.19921875 92.515625 C-36.73743716 94.09958216 -27.42132506 93.42846355 -17.4765625 89.875 C-15 89 -15 89 -13 89 C-13 88.34 -13 87.68 -13 87 C-13.928125 87.226875 -14.85625 87.45375 -15.8125 87.6875 C-22.99234246 88.6758184 -29.92237131 86.10801863 -35.6875 81.9375 C-37.63671875 80.40234375 -37.63671875 80.40234375 -39 79 C-39 78.34 -39 77.68 -39 77 C-39.66 77 -40.32 77 -41 77 C-45.06153846 70.6 -45.06153846 70.6 -44.75 67.5625 C-44.37875 66.7890625 -44.37875 66.7890625 -44 66 C-42.52853516 66.48533203 -42.52853516 66.48533203 -41.02734375 66.98046875 C-36.84566282 68.16967698 -32.89067369 68.34446369 -28.5625 68.3125 C-27.44089478 68.30839111 -27.44089478 68.30839111 -26.29663086 68.30419922 C-20.07763946 68.18594936 -14.61588787 67.61588787 -10 63 C-10.90878906 62.99613281 -10.90878906 62.99613281 -11.8359375 62.9921875 C-19.63896036 62.63204798 -25.98565761 60.11780483 -31.515625 54.4453125 C-33.7983562 51.34272714 -34.44652326 48.79544774 -34 45 C-33.01 45.33 -32.02 45.66 -31 46 C-28.71067322 46.12093495 -26.41748676 46.17538326 -24.125 46.1875 C-22.91070312 46.20167969 -21.69640625 46.21585938 -20.4453125 46.23046875 C-15.99714239 45.93291542 -13.16829894 45.16829894 -10 42 C-9.67 41.67 -9.34 41.34 -9 41 C-9.83144531 40.99742188 -10.66289062 40.99484375 -11.51953125 40.9921875 C-14.78185645 40.87609052 -17.807099 40.6907092 -21 40 C-23.25 36.9375 -23.25 36.9375 -24 34 C-21.2799224 32.87996805 -18.65426412 31.90509211 -15.8125 31.125 C-12.37638196 29.75055278 -12.45488961 29.27084672 -11 26 C-10.39285156 24.83210938 -9.78570312 23.66421875 -9.16015625 22.4609375 C-5.38324463 15.13645235 -1.8663236 8.08740229 0 0 Z M14 111 C16.83430453 114.2542015 18.68607774 115.5206753 23 116 C23 115.01 23 114.02 23 113 C18.545 112.01 18.545 112.01 14 111 Z M59 191 C58.67 191.66 58.34 192.32 58 193 C58.99 193 59.98 193 61 193 C61 192.34 61 191.68 61 191 C60.34 191 59.68 191 59 191 Z " fill="#0E0F0E" transform="translate(326,52)"/>
<path d="M0 0 C0 0.33 0 0.66 0 1 C-2.31 1.66 -4.62 2.32 -7 3 C-7 3.66 -7 4.32 -7 5 C-5.02 5 -3.04 5 -1 5 C-1 5.33 -1 5.66 -1 6 C1.31 6.33 3.62 6.66 6 7 C6 7.33 6 7.66 6 8 C5.01604248 7.99214478 5.01604248 7.99214478 4.01220703 7.98413086 C1.04981437 7.96338728 -1.91256303 7.95034824 -4.875 7.9375 C-5.90753906 7.92912109 -6.94007812 7.92074219 -8.00390625 7.91210938 C-8.99003906 7.90888672 -9.97617188 7.90566406 -10.9921875 7.90234375 C-11.90339355 7.89710693 -12.81459961 7.89187012 -13.75341797 7.88647461 C-16.03687509 7.85114435 -16.03687509 7.85114435 -18 9 C-19.66691076 8.66788944 -21.33352202 8.33427537 -23 8 C-25.39230895 7.93044603 -27.78646896 7.91547933 -30.1796875 7.9375 C-30.86950714 7.94128662 -31.55932678 7.94507324 -32.27005005 7.94897461 C-35.19476006 7.96511707 -38.11932471 7.99285494 -41.04394531 8.02050781 C-51.08468288 8.10710519 -60.98839734 7.81742263 -71 7 C-71 6.01 -71 5.02 -71 4 C-68.53553401 2.767767 -66.7017558 2.76234445 -63.94628906 2.61108398 C-62.89048645 2.55109726 -61.83468384 2.49111053 -60.74688721 2.42930603 C-59.59807068 2.36884598 -58.44925415 2.30838593 -57.265625 2.24609375 C-55.48850128 2.14833397 -55.48850128 2.14833397 -53.67547607 2.04859924 C-51.15697741 1.91117792 -48.6383563 1.77598567 -46.11962891 1.64282227 C-42.30725608 1.440538 -38.49543471 1.22962198 -34.68359375 1.01757812 C-32.23179918 0.88489176 -29.77997698 0.75271499 -27.328125 0.62109375 C-26.20359924 0.55860947 -25.07907349 0.49612518 -23.92047119 0.43174744 C-15.94128213 0.01707855 -7.9891856 -0.06725173 0 0 Z " fill="#282828" transform="translate(83,287)"/>
<path d="M0 0 C-0.99 0.66 -1.98 1.32 -3 2 C-3 2.66 -3 3.32 -3 4 C-9.34196273 5.13506719 -15.56873368 5.15202416 -22 5.125 C-23.10400146 5.12306641 -24.20800293 5.12113281 -25.34545898 5.11914062 C-33.60010282 5.07567289 -41.77902514 4.74857657 -50 4 C-50 3.01 -50 2.02 -50 1 C-33.32268325 0.14498622 -16.69807545 -0.13210503 0 0 Z " fill="#101010" transform="translate(62,290)"/>
<path d="M0 0 C6.25107435 0.42954941 12.04204521 1.01401507 18 3 C18 4.32 18 5.64 18 7 C12.89555619 8.00328368 7.91654247 8.24452095 2.734375 8.38671875 C1.42246185 8.42500542 1.42246185 8.42500542 0.08404541 8.46406555 C-1.75477908 8.51584911 -3.59367055 8.56530125 -5.43261719 8.61254883 C-8.25496489 8.68763208 -11.07656287 8.77816778 -13.8984375 8.86914062 C-15.68747454 8.91761547 -17.47653671 8.96517382 -19.265625 9.01171875 C-20.11143127 9.04077805 -20.95723755 9.06983734 -21.82867432 9.09977722 C-23.88556809 9.14438452 -25.94424446 9.08167604 -28 9 C-28.66 8.34 -29.32 7.68 -30 7 C-16.8 6.67 -3.6 6.34 10 6 C9.505 5.01 9.505 5.01 9 4 C6.65092125 3.31068656 6.65092125 3.31068656 3.9375 2.875 C3.01839844 2.70742188 2.09929687 2.53984375 1.15234375 2.3671875 C0.44207031 2.24601562 -0.26820313 2.12484375 -1 2 C-0.67 1.34 -0.34 0.68 0 0 Z " fill="#363535" transform="translate(407,287)"/>
<path d="M0 0 C-0.24801947 5.08439917 -1.90599242 7.85091879 -5.28125 11.45703125 C-11.20514765 16.77507573 -18.41124094 16.63863052 -26 17 C-26.33 16.34 -26.66 15.68 -27 15 C-23.7 15 -20.4 15 -17 15 C-17 14.34 -17 13.68 -17 13 C-16.39671875 12.84144531 -15.7934375 12.68289062 -15.171875 12.51953125 C-9.97495347 11.00236545 -6.95739019 9.80575906 -4 5 C-3.67 4.34 -3.34 3.68 -3 3 C-3.99 3.33 -4.98 3.66 -6 4 C-8.69921875 3.66015625 -8.69921875 3.66015625 -11.6875 3.0625 C-13.17830078 2.77052734 -13.17830078 2.77052734 -14.69921875 2.47265625 C-15.45847656 2.31667969 -16.21773438 2.16070312 -17 2 C-17 1.67 -17 1.34 -17 1 C-16.11248047 1.01740234 -16.11248047 1.01740234 -15.20703125 1.03515625 C-10.0291722 1.09428351 -5.09866535 0 0 0 Z " fill="#201F1E" transform="translate(364,98)"/>
<path d="M0 0 C0.99 0.33 1.98 0.66 3 1 C3 2.32 3 3.64 3 5 C6.90028225 7.60018816 10.47434569 7.15085514 15 7 C14.64987213 9.59094622 14.26229035 11.5774211 12.875 13.8125 C9.99131838 15.63883169 7.32254207 15.18806842 4 15 C4.99 14.34 5.98 13.68 7 13 C9.60530346 11.12428023 9.60530346 11.12428023 12 9 C11.16855469 8.99742188 10.33710938 8.99484375 9.48046875 8.9921875 C6.21814355 8.87609052 3.192901 8.6907092 0 8 C-2.25 4.9375 -2.25 4.9375 -3 2 C-2.01 1.34 -1.02 0.68 0 0 Z " fill="#292928" transform="translate(305,84)"/>
<path d="M0 0 C9.24 0 18.48 0 28 0 C26.71284823 5.14860706 25.09341999 5.86461447 21 9 C20.34 8.67 19.68 8.34 19 8 C19.33 7.01 19.66 6.02 20 5 C19.34 4.67 18.68 4.34 18 4 C18.66 3.67 19.32 3.34 20 3 C18.72382813 2.95101562 17.44765625 2.90203125 16.1328125 2.8515625 C14.46351928 2.77653809 12.79424954 2.70099012 11.125 2.625 C10.28324219 2.5940625 9.44148438 2.563125 8.57421875 2.53125 C7.76855469 2.49257812 6.96289062 2.45390625 6.1328125 2.4140625 C5.38918457 2.3826416 4.64555664 2.3512207 3.87939453 2.31884766 C2 2 2 2 0 0 Z " fill="#252525" transform="translate(371,212)"/>
<path d="M0 0 C1.41791408 0.45445964 2.83428046 0.91374944 4.25 1.375 C5.43335938 1.75785156 5.43335938 1.75785156 6.640625 2.1484375 C8.86627958 2.95173667 10.90931672 3.89711662 13 5 C13 5.66 13 6.32 13 7 C11.27119018 7.05449838 9.54187288 7.09301688 7.8125 7.125 C6.84957031 7.14820313 5.88664062 7.17140625 4.89453125 7.1953125 C1.87187222 6.9913544 -0.26769985 6.26874632 -3 5 C-3 4.34 -3 3.68 -3 3 C-2.01 3 -1.02 3 0 3 C0 2.01 0 1.02 0 0 Z " fill="#0E0E0D" transform="translate(379,243)"/>
<path d="M0 0 C4.69023454 0.56606279 9.34500026 1.18537505 14 2 C11.03312999 3.64826111 8.34373475 4.44271087 5 5 C5.7115625 6.1446875 5.7115625 6.1446875 6.4375 7.3125 C8 10 8 10 9 13 C7.171875 12.80859375 7.171875 12.80859375 5 12 C3.515625 9.78515625 3.515625 9.78515625 2.25 7.0625 C1.82203125 6.16660156 1.3940625 5.27070313 0.953125 4.34765625 C0 2 0 2 0 0 Z " fill="#202020" transform="translate(268,143)"/>
<path d="M0 0 C0.99 0.33 1.98 0.66 3 1 C2.34 2.32 1.68 3.64 1 5 C2.65 5.33 4.3 5.66 6 6 C5.67 6.66 5.34 7.32 5 8 C0.55499776 9.33350067 -3.3318831 10.29175731 -8 10 C-8.33 9.34 -8.66 8.68 -9 8 C-8.51789063 7.67386719 -8.03578125 7.34773437 -7.5390625 7.01171875 C-6.90742188 6.57472656 -6.27578125 6.13773438 -5.625 5.6875 C-4.99851562 5.25824219 -4.37203125 4.82898438 -3.7265625 4.38671875 C-1.73621155 2.93079661 -1.73621155 2.93079661 0 0 Z " fill="#1A1A19" transform="translate(296,242)"/>
<path d="M0 0 C0.66 0 1.32 0 2 0 C2 0.99 2 1.98 2 3 C4.31 3.66 6.62 4.32 9 5 C9 5.33 9 5.66 9 6 C7.02 6 5.04 6 3 6 C2.67 6.66 2.34 7.32 2 8 C-0.97 7.67 -3.94 7.34 -7 7 C-7.33 6.01 -7.66 5.02 -8 4 C-6.865625 3.525625 -5.73125 3.05125 -4.5625 2.5625 C-1.24259834 1.36377917 -1.24259834 1.36377917 0 0 Z " fill="#212020" transform="translate(268,243)"/>
<path d="M0 0 C-0.60183749 2.02045442 -1.27306096 4.02111039 -2 6 C-2.99 6.495 -2.99 6.495 -4 7 C-4 5.68 -4 4.36 -4 3 C-4.82757813 3.17402344 -5.65515625 3.34804687 -6.5078125 3.52734375 C-10.37636697 4.05094005 -14.0078191 3.88851234 -17.875 3.5625 C-18.56335938 3.51029297 -19.25171875 3.45808594 -19.9609375 3.40429688 C-21.64112758 3.27594902 -23.32064749 3.13887775 -25 3 C-25 2.67 -25 2.34 -25 2 C-21.58363244 1.66355312 -18.16686185 1.33138634 -14.75 1 C-13.78191406 0.90460938 -12.81382812 0.80921875 -11.81640625 0.7109375 C-10.41455078 0.57558594 -10.41455078 0.57558594 -8.984375 0.4375 C-8.12553711 0.35371094 -7.26669922 0.26992187 -6.38183594 0.18359375 C-4.25997133 0.02003879 -2.12815874 0 0 0 Z " fill="#252524" transform="translate(409,182)"/>
<path d="M0 0 C4.62 0.66 9.24 1.32 14 2 C14 2.33 14 2.66 14 3 C9.545 3.495 9.545 3.495 5 4 C6.32 6.31 7.64 8.62 9 11 C5.17035345 9.43977363 2.67809511 7.12444429 0 4 C0 2.68 0 1.36 0 0 Z " fill="#212120" transform="translate(266,168)"/>
<path d="M0 0 C0.66 0 1.32 0 2 0 C2.66 2.64 3.32 5.28 4 8 C3.01 8.33 2.02 8.66 1 9 C0.505 10.155 0.01 11.31 -0.5 12.5 C-0.995 13.655 -1.49 14.81 -2 16 C-2.99 16.33 -3.98 16.66 -5 17 C-4.80664062 16.35933594 -4.61328125 15.71867187 -4.4140625 15.05859375 C-2.9059252 10.04889015 -1.42282214 5.03460143 0 0 Z " fill="#212121" transform="translate(326,52)"/>
<path d="M0 0 C1.175625 0.4640625 1.175625 0.4640625 2.375 0.9375 C6.89851578 2.26335807 11.31431814 2.64811085 16 3 C16 3.33 16 3.66 16 4 C10.555 4.495 10.555 4.495 5 5 C5.33 6.98 5.66 8.96 6 11 C4.62437146 9.71034824 3.29233607 8.37310707 2 7 C2 6.34 2 5.68 2 5 C0.68 4.34 -0.64 3.68 -2 3 C-1.34 2.67 -0.68 2.34 0 2 C0 1.34 0 0.68 0 0 Z " fill="#292828" transform="translate(232,220)"/>
<path d="M0 0 C0.74636719 -0.00386719 1.49273437 -0.00773437 2.26171875 -0.01171875 C6.14139586 -0.00485206 9.71080898 0.17770224 13.5 1.125 C13.5 1.455 13.5 1.785 13.5 2.125 C4.59 2.125 -4.32 2.125 -13.5 2.125 C-13.5 1.795 -13.5 1.465 -13.5 1.125 C-8.97315223 -0.00671194 -4.63221064 -0.02400109 0 0 Z " fill="#20201F" transform="translate(43.5,305.875)"/>
<path d="M0 0 C5.28 0.33 10.56 0.66 16 1 C16 1.33 16 1.66 16 2 C10.555 2.495 10.555 2.495 5 3 C6.98 5.97 6.98 5.97 9 9 C5.55862568 7.4705003 2.7777867 5.54630448 0 3 C0 2.01 0 1.02 0 0 Z " fill="#282828" transform="translate(255,211)"/>
<path d="M0 0 C5.61 0 11.22 0 17 0 C16.67 0.99 16.34 1.98 16 3 C13.70890403 3.08075665 11.41700733 3.13907731 9.125 3.1875 C7.21074219 3.23970703 7.21074219 3.23970703 5.2578125 3.29296875 C4.18273437 3.19628906 3.10765625 3.09960938 2 3 C1.34 2.01 0.68 1.02 0 0 Z " fill="#1D1D1D" transform="translate(251,239)"/>
<path d="M0 0 C1.70884005 1.62339805 3.37446717 3.29319053 5 5 C5 5.66 5 6.32 5 7 C3.26969709 6.71515154 1.54079286 6.42180062 -0.1875 6.125 C-1.15042969 5.96257812 -2.11335938 5.80015625 -3.10546875 5.6328125 C-5.91032604 5.01960483 -8.37224747 4.14333657 -11 3 C-9.125 1.9375 -9.125 1.9375 -7 1 C-6.34 1.33 -5.68 1.66 -5 2 C-5 2.66 -5 3.32 -5 4 C-3.35 4.33 -1.7 4.66 0 5 C-0.2784375 4.0409375 -0.2784375 4.0409375 -0.5625 3.0625 C-0.706875 2.381875 -0.85125 1.70125 -1 1 C-0.67 0.67 -0.34 0.34 0 0 Z " fill="#272626" transform="translate(363,246)"/>
<path d="M0 0 C0.33 0 0.66 0 1 0 C1.33 1.98 1.66 3.96 2 6 C1.34 6 0.68 6 0 6 C0.020625 7.258125 0.04125 8.51625 0.0625 9.8125 C0.10886083 12.64051087 -0.08307039 14.24921116 -1 17 C-1.66 17 -2.32 17 -3 17 C-3.33 17.99 -3.66 18.98 -4 20 C-5.54227748 16.91544503 -4.17818414 14.89426411 -3.125 11.6875 C-1.85798496 7.80228254 -0.7102242 4.02712234 0 0 Z " fill="#202020" transform="translate(312,247)"/>
<path d="M0 0 C-0.33 1.65 -0.66 3.3 -1 5 C-1.33 4.01 -1.66 3.02 -2 2 C-4.05270463 3.84188612 -4.05270463 3.84188612 -5 6 C-5.66 6 -6.32 6 -7 6 C-7 5.34 -7 4.68 -7 4 C-9.31 3.67 -11.62 3.34 -14 3 C-14 2.67 -14 2.34 -14 2 C-12.04200486 1.66468585 -10.08359226 1.33180857 -8.125 1 C-6.48917969 0.7215625 -6.48917969 0.7215625 -4.8203125 0.4375 C-2 0 -2 0 0 0 Z " fill="#2C2C2C" transform="translate(418,222)"/>
<path d="M0 0 C-0.66 0.66 -1.32 1.32 -2 2 C-2 1.34 -2 0.68 -2 0 C-2.68449219 0.32742187 -3.36898438 0.65484375 -4.07421875 0.9921875 C-7.48912059 2.16848212 -10.21031284 2.19777146 -13.8125 2.125 C-14.97394531 2.10695312 -16.13539063 2.08890625 -17.33203125 2.0703125 C-18.21246094 2.04710937 -19.09289062 2.02390625 -20 2 C-20 1.67 -20 1.34 -20 1 C-18.87851562 0.80083984 -18.87851562 0.80083984 -17.734375 0.59765625 C-16.25710938 0.33275391 -16.25710938 0.33275391 -14.75 0.0625 C-13.77546875 -0.11152344 -12.8009375 -0.28554687 -11.796875 -0.46484375 C-9.08392506 -0.94087518 -9.08392506 -0.94087518 -6.8125 -1.625 C-4.14114246 -2.17769466 -2.40486354 -1.13563001 0 0 Z " fill="#2D2D2C" transform="translate(313,163)"/>
<path d="M0 0 C0.99 0.33 1.98 0.66 3 1 C5.05893621 1.22325814 7.12233653 1.40705759 9.1875 1.5625 C10.27417969 1.64628906 11.36085938 1.73007813 12.48046875 1.81640625 C13.72763672 1.90728516 13.72763672 1.90728516 15 2 C15 2.33 15 2.66 15 3 C11.37 3 7.74 3 4 3 C3.67 4.65 3.34 6.3 3 8 C1.5 6.8125 1.5 6.8125 0 5 C-0.1875 2.3125 -0.1875 2.3125 0 0 Z " fill="#30302F" transform="translate(292,97)"/>
<path d="M0 0 C-0.33 1.32 -0.66 2.64 -1 4 C-2.91731918 3.88544319 -4.8338675 3.75793742 -6.75 3.625 C-7.81734375 3.55539063 -8.8846875 3.48578125 -9.984375 3.4140625 C-12.80206432 3.0271777 -14.5830366 2.44313834 -17 1 C-16.11248047 1.01740234 -16.11248047 1.01740234 -15.20703125 1.03515625 C-10.0291722 1.09428351 -5.09866535 0 0 0 Z " fill="#2C2C2B" transform="translate(364,98)"/>
<path d="M0 0 C6.93 0 13.86 0 21 0 C21 0.66 21 1.32 21 2 C16.50832172 3.19600901 12.26730207 2.9185704 7.6875 2.5625 C6.57665039 2.48418945 6.57665039 2.48418945 5.44335938 2.40429688 C3.62847291 2.27549848 1.81416675 2.13856738 0 2 C0 1.34 0 0.68 0 0 Z " fill="#2C2B2A" transform="translate(360,171)"/>
<path d="M0 0 C3.63 0.33 7.26 0.66 11 1 C11 1.99 11 2.98 11 4 C5.06 3.01 5.06 3.01 -1 2 C-0.67 1.34 -0.34 0.68 0 0 Z " fill="#1F1F1F" transform="translate(407,287)"/>
<path d="M0 0 C6.6 0.33 13.2 0.66 20 1 C20 1.33 20 1.66 20 2 C17.04196565 2.19421438 14.08379837 2.38066186 11.125 2.5625 C10.28324219 2.61857422 9.44148438 2.67464844 8.57421875 2.73242188 C7.76855469 2.78076172 6.96289062 2.82910156 6.1328125 2.87890625 C5.38918457 2.9260376 4.64555664 2.97316895 3.87939453 3.02172852 C2 3 2 3 0 2 C0 1.34 0 0.68 0 0 Z " fill="#262625" transform="translate(251,182)"/>
<path d="M0 0 C2.9375 0.8125 2.9375 0.8125 6 2 C6.33 2.99 6.66 3.98 7 5 C3.37 5 -0.26 5 -4 5 C-2.68 4.67 -1.36 4.34 0 4 C0 2.68 0 1.36 0 0 Z " fill="#232222" transform="translate(385,245)"/>
<path d="M0 0 C1.32 0 2.64 0 4 0 C4.33 0.99 4.66 1.98 5 3 C3.5625 5.6875 3.5625 5.6875 2 8 C1.67 6.68 1.34 5.36 1 4 C-0.65 3.67 -2.3 3.34 -4 3 C-2.68 2.67 -1.36 2.34 0 2 C0 1.34 0 0.68 0 0 Z " fill="#282828" transform="translate(370,118)"/>
<path d="M0 0 C0.33 0.99 0.66 1.98 1 3 C-0.5 5.6875 -0.5 5.6875 -3 8 C-6.75 8.3125 -6.75 8.3125 -10 8 C-9.01 7.34 -8.02 6.68 -7 6 C-4.44572454 4.16411451 -2.17015506 2.27866281 0 0 Z " fill="#1C1C1C" transform="translate(319,91)"/>
<path d="M0 0 C1.31896465 0.92838287 2.62998689 1.86805732 3.9375 2.8125 C4.66839844 3.33457031 5.39929688 3.85664062 6.15234375 4.39453125 C8 6 8 6 9 9 C5.0873016 7.6957672 2.62689759 6.21065261 0 3 C0 2.01 0 1.02 0 0 Z " fill="#161515" transform="translate(295,103)"/>
<path d="M0 0 C2.64 0.99 5.28 1.98 8 3 C7.01 4.485 7.01 4.485 6 6 C5.34 6 4.68 6 4 6 C3.67 6.66 3.34 7.32 3 8 C1.92474806 5.34771188 0.90543849 2.71631546 0 0 Z " fill="#1D1E1D" transform="translate(343,83)"/>
<path d="M0 0 C0.8125 1.6875 0.8125 1.6875 1 4 C-1.1613627 6.51185394 -3.01962439 8.50981219 -6 10 C-5.49477778 5.62140745 -2.82172778 3.18348776 0 0 Z " fill="#171817" transform="translate(312,236)"/>
<path d="M0 0 C-0.33 0.66 -0.66 1.32 -1 2 C-3.50390625 2.6328125 -3.50390625 2.6328125 -6.5625 3.125 C-8.08037109 3.37636719 -8.08037109 3.37636719 -9.62890625 3.6328125 C-10.80259766 3.81457031 -10.80259766 3.81457031 -12 4 C-12 3.34 -12 2.68 -12 2 C-7.8794254 0.00214565 -4.54805635 -0.17835515 0 0 Z " fill="#242322" transform="translate(290,244)"/>
<path d="M0 0 C-3.00617269 3.00617269 -5.82381598 2.59585316 -10 3 C-7.00991906 -1.48512141 -4.87831759 -1.18661779 0 0 Z " fill="#1E1E1D" transform="translate(391,198)"/>
<path d="M0 0 C-0.66 1.65 -1.32 3.3 -2 5 C-4.31 4.01 -6.62 3.02 -9 2 C-9 1.67 -9 1.34 -9 1 C-2.25 -1.125 -2.25 -1.125 0 0 Z " fill="#2A2A2A" transform="translate(391,169)"/>
<path d="M0 0 C0.66 0 1.32 0 2 0 C0.64978174 4.41889613 -1.26115668 6.34345343 -5 9 C-4.42676569 5.13066838 -2.61046448 2.84777943 0 0 Z " fill="#191818" transform="translate(361,102)"/>
<path d="M0 0 C2.64 0 5.28 0 8 0 C8 0.66 8 1.32 8 2 C9.32 2.66 10.64 3.32 12 4 C10.5608866 3.71640113 9.12374482 3.42278601 7.6875 3.125 C6.88699219 2.96257812 6.08648437 2.80015625 5.26171875 2.6328125 C3 2 3 2 0 0 Z " fill="#232221" transform="translate(345,196)"/>
<path d="M0 0 C0.33 0.99 0.66 1.98 1 3 C-0.62339805 4.70884005 -2.29319053 6.37446717 -4 8 C-4.66 8 -5.32 8 -6 8 C-4.55746343 4.63408134 -2.66735273 2.48952921 0 0 Z " fill="#151514" transform="translate(370,124)"/>
<path d="M0 0 C1.02104551 0.97850195 2.0206121 1.97980427 3 3 C3 3.33 3 3.66 3 4 C0.69 4 -1.62 4 -4 4 C-3.67 3.01 -3.34 2.02 -3 1 C-2.01 0.67 -1.02 0.34 0 0 Z " fill="#090808" transform="translate(415,290)"/>
<path d="M0 0 C1.70884005 1.62339805 3.37446717 3.29319053 5 5 C5 5.66 5 6.32 5 7 C4.01 7 3.02 7 2 7 C2 6.34 2 5.68 2 5 C1.34 5 0.68 5 0 5 C-0.5625 3.0625 -0.5625 3.0625 -1 1 C-0.67 0.67 -0.34 0.34 0 0 Z " fill="#1C1D1C" transform="translate(363,246)"/>
<path d="M0 0 C0.66 0.33 1.32 0.66 2 1 C1.01 1.33 0.02 1.66 -1 2 C-1 2.66 -1 3.32 -1 4 C-4.28976808 5.09658936 -5.71303767 4.79953138 -9 4 C-6.06195683 2.47657021 -3.13439441 1.07229283 0 0 Z " fill="#252424" transform="translate(298,206)"/>
<path d="M0 0 C-0.75 5.75 -0.75 5.75 -3 8 C-3.33 5.69 -3.66 3.38 -4 1 C-2 0 -2 0 0 0 Z " fill="#201F1F" transform="translate(386,143)"/>
<path d="M0 0 C3.37462715 0.54723683 5.08235 1.0549 8 3 C8 3.66 8 4.32 8 5 C4.62496331 3.8141763 2.35277269 2.72426311 0 0 Z " fill="#1C1C1B" transform="translate(255,192)"/>
<path d="M0 0 C1.32 0 2.64 0 4 0 C3.39816251 2.02045442 2.72693904 4.02111039 2 6 C1.01 6.495 1.01 6.495 0 7 C0 4.69 0 2.38 0 0 Z " fill="#2B2B2A" transform="translate(405,182)"/>
<path d="M0 0 C0.66 0 1.32 0 2 0 C1.1875 3.4375 1.1875 3.4375 0 7 C-0.99 7.33 -1.98 7.66 -3 8 C-1.125 1.125 -1.125 1.125 0 0 Z " fill="#181918" transform="translate(324,61)"/>
<path d="M0 0 C3.63 0.33 7.26 0.66 11 1 C11 1.33 11 1.66 11 2 C7.7 2.33 4.4 2.66 1 3 C0.67 2.01 0.34 1.02 0 0 Z " fill="#272726" transform="translate(375,282)"/>
<path d="M0 0 C1.99097846 2.98646769 2.94124926 5.59687262 4 9 C3.01 8.67 2.02 8.34 1 8 C-0.35439668 5.29120665 -0.06501451 2.99066732 0 0 Z " fill="#191919" transform="translate(344,263)"/>
<path d="M0 0 C1.88391785 3.26545761 2.49287967 6.28111761 3 10 C2.34 10 1.68 10 1 10 C-0.60725635 6.78548731 -0.05748185 3.56387464 0 0 Z " fill="#20211F" transform="translate(341,253)"/>
<path d="M0 0 C-3.3146667 2.02907167 -5.4315979 2.12742133 -9.25 1.625 C-10.14203125 1.51414063 -11.0340625 1.40328125 -11.953125 1.2890625 C-12.62859375 1.19367188 -13.3040625 1.09828125 -14 1 C-14 0.67 -14 0.34 -14 0 C-12.41773035 -0.19627391 -10.83410729 -0.38165538 -9.25 -0.5625 C-8.36828125 -0.66691406 -7.4865625 -0.77132812 -6.578125 -0.87890625 C-4.11567549 -0.99456676 -2.33461936 -0.73638695 0 0 Z " fill="#3C3C3A" transform="translate(288,211)"/>
<path d="M0 0 C2.64 0.66 5.28 1.32 8 2 C4.91190305 3.76462683 3.76687864 4 0 4 C0 2.68 0 1.36 0 0 Z " fill="#2D2E2E" transform="translate(281,118)"/>
<path d="M0 0 C0.99 0.33 1.98 0.66 3 1 C2.67 1.99 2.34 2.98 2 4 C1.34 2.68 0.68 1.36 0 0 Z " fill="#333231" transform="translate(300,112)"/>
<path d="M0 0 C1.485 0.99 1.485 0.99 3 2 C2.01 2 1.02 2 0 2 C0 1.34 0 0.68 0 0 Z " fill="#383938" transform="translate(155,276)"/>
<path d="M0 0 C3 1 3 1 3 1 Z " fill="#313230" transform="translate(366,203)"/>
<path d="M0 0 C0.99 0.495 0.99 0.495 2 1 C1.01 1.495 1.01 1.495 0 2 C0 1.34 0 0.68 0 0 Z " fill="#3D3E3D" transform="translate(299,84)"/>
<path d="M0 0 C2 1 2 1 2 1 Z " fill="#373636" transform="translate(38,304)"/>
<path d="M0 0 C2 1 2 1 2 1 Z " fill="#373836" transform="translate(233,270)"/>
<path d="M0 0 C2 1 2 1 2 1 Z " fill="#353332" transform="translate(381,251)"/>
<path d="" fill="#2F2C2E" transform="translate(0,0)"/>
<path d="" fill="#343333" transform="translate(0,0)"/>
<path d="M0 0 C2 1 2 1 2 1 Z " fill="#3E3D3C" transform="translate(232,227)"/>
<path d="" fill="#3A3A39" transform="translate(0,0)"/>
<path d="M0 0 C2 1 2 1 2 1 Z " fill="#31302E" transform="translate(357,203)"/>
<path d="M0 0 C2 1 2 1 2 1 Z " fill="#353535" transform="translate(269,203)"/>
<path d="M0 0 C2 1 2 1 2 1 Z " fill="#333230" transform="translate(304,199)"/>
<path d="M0 0 C2 1 2 1 2 1 Z " fill="#363536" transform="translate(262,181)"/>
<path d="M0 0 C2 1 2 1 2 1 Z " fill="#333433" transform="translate(303,166)"/>
<path d="M0 0 C2 1 2 1 2 1 Z " fill="#414040" transform="translate(381,142)"/>
<path d="M0 0 C2 1 2 1 2 1 Z " fill="#404040" transform="translate(269,141)"/>
<path d="M0 0 C2 1 2 1 2 1 Z " fill="#414140" transform="translate(278,122)"/>
<path d="" fill="#353533" transform="translate(0,0)"/>
<path d="" fill="#353637" transform="translate(0,0)"/>
<path d="" fill="#383837" transform="translate(0,0)"/>
<path d="" fill="#39393A" transform="translate(0,0)"/>
<path d="" fill="#333434" transform="translate(0,0)"/>
<path d="" fill="#343533" transform="translate(0,0)"/>
<path d="" fill="#343332" transform="translate(0,0)"/>
<path d="" fill="#353433" transform="translate(0,0)"/>
<path d="" fill="#353635" transform="translate(0,0)"/>
<path d="" fill="#373837" transform="translate(0,0)"/>
<path d="" fill="#363535" transform="translate(0,0)"/>
<path d="" fill="#373537" transform="translate(0,0)"/>
<path d="" fill="#383838" transform="translate(0,0)"/>
<path d="" fill="#353535" transform="translate(0,0)"/>
<path d="" fill="#363533" transform="translate(0,0)"/>
<path d="" fill="#383737" transform="translate(0,0)"/>
<path d="" fill="#3F3E3C" transform="translate(0,0)"/>
<path d="" fill="#444543" transform="translate(0,0)"/>
<path d="" fill="#454444" transform="translate(0,0)"/>
<path d="" fill="#343331" transform="translate(0,0)"/>
<path d="" fill="#323332" transform="translate(0,0)"/>
<path d="" fill="#333432" transform="translate(0,0)"/>
<path d="" fill="#31312F" transform="translate(0,0)"/>
<path d="" fill="#333432" transform="translate(0,0)"/>
<path d="" fill="#343332" transform="translate(0,0)"/>
<path d="" fill="#313131" transform="translate(0,0)"/>
<path d="" fill="#333232" transform="translate(0,0)"/>
<path d="" fill="#353233" transform="translate(0,0)"/>
<path d="" fill="#333332" transform="translate(0,0)"/>
<path d="" fill="#333431" transform="translate(0,0)"/>
<path d="" fill="#323432" transform="translate(0,0)"/>
<path d="" fill="#343332" transform="translate(0,0)"/>
<path d="" fill="#404141" transform="translate(0,0)"/>
<path d="" fill="#464646" transform="translate(0,0)"/>
<path d="" fill="#464546" transform="translate(0,0)"/>
<path d="" fill="#494847" transform="translate(0,0)"/>
<path d="" fill="#3E4040" transform="translate(0,0)"/>
<path d="" fill="#40413F" transform="translate(0,0)"/>
<path d="" fill="#4B4948" transform="translate(0,0)"/>
<path d="" fill="#3B3A3C" transform="translate(0,0)"/>
<path d="" fill="#373534" transform="translate(0,0)"/>
<path d="" fill="#3C3C3B" transform="translate(0,0)"/>
<path d="" fill="#3A3B3A" transform="translate(0,0)"/>
<path d="" fill="#41413E" transform="translate(0,0)"/>
<path d="" fill="#373335" transform="translate(0,0)"/>
<path d="" fill="#313032" transform="translate(0,0)"/>
<path d="" fill="#383737" transform="translate(0,0)"/>
<path d="" fill="#363735" transform="translate(0,0)"/>
<path d="" fill="#3B3B3B" transform="translate(0,0)"/>
<path d="" fill="#373737" transform="translate(0,0)"/>
<path d="" fill="#3A3938" transform="translate(0,0)"/>
<path d="" fill="#2F302D" transform="translate(0,0)"/>
<path d="" fill="#323233" transform="translate(0,0)"/>
<path d="" fill="#313233" transform="translate(0,0)"/>
<path d="" fill="#333332" transform="translate(0,0)"/>
<path d="" fill="#32322F" transform="translate(0,0)"/>
<path d="" fill="#323332" transform="translate(0,0)"/>
<path d="" fill="#353335" transform="translate(0,0)"/>
<path d="" fill="#323231" transform="translate(0,0)"/>
<path d="" fill="#2F2F2D" transform="translate(0,0)"/>
<path d="" fill="#2F2F2E" transform="translate(0,0)"/>
<path d="" fill="#31312F" transform="translate(0,0)"/>
<path d="" fill="#323431" transform="translate(0,0)"/>
<path d="" fill="#353333" transform="translate(0,0)"/>
<path d="" fill="#373433" transform="translate(0,0)"/>
<path d="" fill="#454544" transform="translate(0,0)"/>
<path d="" fill="#4D4E4B" transform="translate(0,0)"/>
<path d="" fill="#3B3B38" transform="translate(0,0)"/>
<path d="" fill="#343230" transform="translate(0,0)"/>
<path d="" fill="#4C4D4B" transform="translate(0,0)"/>
<path d="" fill="#373734" transform="translate(0,0)"/>
<path d="" fill="#3A3838" transform="translate(0,0)"/>
<path d="" fill="#373837" transform="translate(0,0)"/>
<path d="" fill="#353436" transform="translate(0,0)"/>
<path d="" fill="#373739" transform="translate(0,0)"/>
<path d="" fill="#423F41" transform="translate(0,0)"/>
<path d="" fill="#3A3737" transform="translate(0,0)"/>
<path d="" fill="#3E3D3C" transform="translate(0,0)"/>
<path d="" fill="#363635" transform="translate(0,0)"/>
<path d="" fill="#323230" transform="translate(0,0)"/>
<path d="" fill="#323132" transform="translate(0,0)"/>
<path d="" fill="#302E2C" transform="translate(0,0)"/>
<path d="" fill="#312F2F" transform="translate(0,0)"/>
<path d="" fill="#30302F" transform="translate(0,0)"/>
<path d="" fill="#312E2F" transform="translate(0,0)"/>
<path d="" fill="#302F2E" transform="translate(0,0)"/>
<path d="" fill="#343332" transform="translate(0,0)"/>
<path d="" fill="#312F2E" transform="translate(0,0)"/>
<path d="" fill="#343434" transform="translate(0,0)"/>
<path d="" fill="#332F2F" transform="translate(0,0)"/>
<path d="" fill="#363536" transform="translate(0,0)"/>
<path d="" fill="#2F2E2A" transform="translate(0,0)"/>
<path d="" fill="#373838" transform="translate(0,0)"/>
<path d="" fill="#302D2E" transform="translate(0,0)"/>
<path d="" fill="#332E31" transform="translate(0,0)"/>
<path d="" fill="#2C2D2D" transform="translate(0,0)"/>
<path d="" fill="#3E3C3D" transform="translate(0,0)"/>
<path d="" fill="#424243" transform="translate(0,0)"/>
<path d="" fill="#373737" transform="translate(0,0)"/>
<path d="" fill="#343334" transform="translate(0,0)"/>
<path d="" fill="#363636" transform="translate(0,0)"/>
<path d="" fill="#383738" transform="translate(0,0)"/>
<path d="" fill="#323131" transform="translate(0,0)"/>
<path d="" fill="#3C3F3D" transform="translate(0,0)"/>
<path d="" fill="#2F2F2D" transform="translate(0,0)"/>
<path d="" fill="#444242" transform="translate(0,0)"/>
<path d="" fill="#313232" transform="translate(0,0)"/>
<path d="" fill="#333131" transform="translate(0,0)"/>
<path d="" fill="#333332" transform="translate(0,0)"/>
<path d="" fill="#343333" transform="translate(0,0)"/>
<path d="" fill="#403F3D" transform="translate(0,0)"/>
<path d="" fill="#404341" transform="translate(0,0)"/>
<path d="" fill="#383536" transform="translate(0,0)"/>
<path d="" fill="#363433" transform="translate(0,0)"/>
<path d="" fill="#3F3E3E" transform="translate(0,0)"/>
<path d="" fill="#3E3E3B" transform="translate(0,0)"/>
<path d="" fill="#393939" transform="translate(0,0)"/>
<path d="" fill="#3B3B3A" transform="translate(0,0)"/>
<path d="" fill="#3D3B3A" transform="translate(0,0)"/>
<path d="" fill="#3C393A" transform="translate(0,0)"/>
<path d="" fill="#343433" transform="translate(0,0)"/>
<path d="" fill="#31312F" transform="translate(0,0)"/>
<path d="" fill="#3E3D3E" transform="translate(0,0)"/>
<path d="" fill="#2F2E2D" transform="translate(0,0)"/>
<path d="" fill="#353231" transform="translate(0,0)"/>
<path d="" fill="#343433" transform="translate(0,0)"/>
<path d="" fill="#373936" transform="translate(0,0)"/>
<path d="" fill="#3E3C3C" transform="translate(0,0)"/>
<path d="" fill="#353432" transform="translate(0,0)"/>
<path d="" fill="#454645" transform="translate(0,0)"/>
<path d="" fill="#323330" transform="translate(0,0)"/>
<path d="" fill="#484644" transform="translate(0,0)"/>
<path d="" fill="#2F312E" transform="translate(0,0)"/>
<path d="" fill="#383737" transform="translate(0,0)"/>
<path d="" fill="#393939" transform="translate(0,0)"/>
<path d="" fill="#383A38" transform="translate(0,0)"/>
<path d="" fill="#3A3939" transform="translate(0,0)"/>
<path d="" fill="#383538" transform="translate(0,0)"/>
<path d="" fill="#3C3B3B" transform="translate(0,0)"/>
<path d="" fill="#3A3A38" transform="translate(0,0)"/>
<path d="" fill="#454444" transform="translate(0,0)"/>
<path d="" fill="#4A4A4A" transform="translate(0,0)"/>
<path d="" fill="#494B4B" transform="translate(0,0)"/>
<path d="" fill="#4B494A" transform="translate(0,0)"/>
</svg>
